<svg width="18" height="21" viewBox="0 0 18 21" fill="none" xmlns="http://www.w3.org/2000/svg">
<g id="Icon">
<path d="M5.75 9.00006C5.75 7.20513 7.20507 5.75006 9 5.75006C10.7949 5.75006 12.25 7.20513 12.25 9.00006C12.25 10.795 10.7949 12.2501 9 12.2501C7.20507 12.2501 5.75 10.795 5.75 9.00006Z" fill="#7BAF00"/>
<path fill-rule="evenodd" clip-rule="evenodd" d="M0.773543 7.87745C1.11718 3.70851 4.60097 0.500061 8.78406 0.500061H9.21599C13.3991 0.500061 16.8829 3.70851 17.2265 7.87745C17.4115 10.122 16.7182 12.3508 15.2925 14.0944L10.4995 19.9562C9.72449 20.9039 8.27556 20.9039 7.50059 19.9562L2.70752 14.0944C1.28187 12.3508 0.588525 10.122 0.773543 7.87745ZM9 4.25006C6.37665 4.25006 4.25 6.37671 4.25 9.00006C4.25 11.6234 6.37665 13.7501 9 13.7501C11.6234 13.7501 13.75 11.6234 13.75 9.00006C13.75 6.37671 11.6234 4.25006 9 4.25006Z" fill="#7BAF00"/>
</g>
</svg>
