<svg width="54" height="66" viewBox="0 0 54 66" fill="none" xmlns="http://www.w3.org/2000/svg">
<g id="Icon">
<path d="M16.5086 27.8015C16.5086 21.9542 21.2488 17.2141 27.096 17.2141C32.9433 17.2141 37.6835 21.9542 37.6835 27.8015C37.6835 33.6488 32.9433 38.3889 27.096 38.3889C21.2488 38.3889 16.5086 33.6488 16.5086 27.8015Z" fill="#515151" fill-opacity="0.9"/>
<path fill-rule="evenodd" clip-rule="evenodd" d="M0.296954 24.1444C1.41642 10.5634 12.7655 0.111328 26.3926 0.111328H27.7997C41.4268 0.111328 52.7758 10.5634 53.8953 24.1444C54.498 31.4566 52.2393 38.7172 47.595 44.3971L31.9808 63.4929C29.4562 66.5804 24.736 66.5804 22.2114 63.4929L6.59723 44.3971C1.9529 38.7173 -0.305774 31.4566 0.296954 24.1444ZM27.096 12.3276C18.55 12.3276 11.6221 19.2555 11.6221 27.8015C11.6221 36.3475 18.55 43.2754 27.096 43.2754C35.642 43.2754 42.57 36.3475 42.57 27.8015C42.57 19.2555 35.642 12.3276 27.096 12.3276Z" fill="#515151" fill-opacity="0.9"/>
</g>
</svg>
